<svg width="368" height="220" viewBox="0 0 368 220" fill="none" xmlns="http://www.w3.org/2000/svg">
<path d="M239.66 212.92C240.567 212.92 241.02 213.6 241.02 214.96C241.02 216.32 240.567 217 239.66 217C235.353 217 228.667 216.773 219.6 216.32C210.533 215.867 203.96 215.64 199.88 215.64C194.893 215.64 188.547 215.867 180.84 216.32C173.587 216.773 168.033 217 164.18 217C163.273 217 162.82 216.32 162.82 214.96C162.82 213.6 163.273 212.92 164.18 212.92C172.567 212.92 178.687 212.127 182.54 210.54C186.393 208.953 188.32 206.233 188.32 202.38C188.32 199.207 186.847 194.333 183.9 187.76L153.64 123.5H72.72L51.3 173.82C48.1267 181.527 46.54 187.76 46.54 192.52C46.54 199.547 49.26 204.76 54.7 208.16C60.3667 211.333 68.7533 212.92 79.86 212.92C80.9933 212.92 81.56 213.6 81.56 214.96C81.56 216.32 80.9933 217 79.86 217C75.78 217 69.8867 216.773 62.18 216.32C53.5667 215.867 46.0867 215.64 39.74 215.64C33.8467 215.64 27.0467 215.867 19.34 216.32C12.54 216.773 6.87333 217 2.34 217C1.20667 217 0.64 216.32 0.64 214.96C0.64 213.6 1.20667 212.92 2.34 212.92C8.68667 212.92 14.0133 211.787 18.32 209.52C22.8533 207.027 27.0467 202.833 30.9 196.94C34.98 190.82 39.4 182.093 44.16 170.76L115.9 1.44C116.353 0.759994 117.147 0.419992 118.28 0.419992C119.413 0.419992 120.093 0.759994 120.32 1.44L200.56 170.42C208.267 187.193 214.84 198.527 220.28 204.42C225.72 210.087 232.18 212.92 239.66 212.92ZM75.44 116.7H150.58L110.8 32.72L75.44 116.7Z" fill="#FFCE34"/>
<path d="M365.1 198.64C366.007 198.64 366.573 199.207 366.8 200.34C367.027 201.247 366.687 201.927 365.78 202.38L330.76 219.04C329.853 219.493 328.947 219.72 328.04 219.72C325.093 219.72 322.487 217.793 320.22 213.94C317.953 209.86 316.48 204.42 315.8 197.62L298.12 209.18C292.453 212.807 287.467 215.413 283.16 217C278.853 218.587 274.32 219.38 269.56 219.38C261.173 219.38 254.6 217.227 249.84 212.92C245.307 208.387 243.04 202.72 243.04 195.92C243.04 189.12 245.76 183.227 251.2 178.24C256.64 173.253 265.593 168.493 278.06 163.96L315.46 150.02V126.9C315.46 101.513 308.32 88.82 294.04 88.82C286.333 88.82 280.44 91.4267 276.36 96.64C272.507 101.627 269.9 107.407 268.54 113.98C267.86 118.06 266.613 121.46 264.8 124.18C262.987 126.673 259.927 127.92 255.62 127.92C251.993 127.92 249.16 126.9 247.12 124.86C245.307 122.82 244.4 120.44 244.4 117.72C244.4 112.28 247.913 106.84 254.94 101.4C261.967 95.96 270.353 91.4267 280.1 87.8C289.847 84.1733 298.573 82.36 306.28 82.36C315.573 82.36 322.6 85.3067 327.36 91.2C332.12 97.0933 334.5 105.593 334.5 116.7V180.28C334.5 188.213 335.52 193.993 337.56 197.62C339.6 201.247 343 203.06 347.76 203.06C352.067 203.06 357.62 201.587 364.42 198.64H365.1ZM315.46 192.86V191.16V154.78L283.84 167.02C277.493 169.513 272.847 172.46 269.9 175.86C267.18 179.033 265.82 182.887 265.82 187.42C265.82 192.86 267.52 197.507 270.92 201.36C274.547 204.987 279.193 206.8 284.86 206.8C289.393 206.8 294.833 204.987 301.18 201.36L315.46 192.86Z" fill="#FFCE34"/>
</svg>
